<svg width="88" height="129" viewBox="0 0 88 129" fill="none" xmlns="http://www.w3.org/2000/svg">
<path d="M43.866 91.2409C68.0926 91.2409 87.7321 70.8159 87.7321 45.6205C87.7321 20.425 68.0926 0 43.866 0C19.6395 0 0 20.425 0 45.6205C0 70.8159 19.6395 91.2409 43.866 91.2409Z" fill="#6164C3"/>
<path d="M43.866 84.6429C64.5887 84.6429 81.3878 67.1719 81.3878 45.6204C81.3878 24.0689 64.5887 6.59796 43.866 6.59796C23.1433 6.59796 6.34424 24.0689 6.34424 45.6204C6.34424 67.1719 23.1433 84.6429 43.866 84.6429Z" fill="white"/>
<path d="M81.5818 125.954L74.629 128.728C72.5445 129.563 70.2269 128.405 69.5536 126.197L57.4866 86.9186L66.2002 83.4445L83.6664 120.42C84.6763 122.548 83.7052 125.106 81.5818 125.954Z" fill="#6164C3"/>
<path d="M46.9477 59.3011H38.6224V69.5617H46.9477V59.3011Z" fill="#797EF4"/>
<path d="M58.7686 52.5685H50.4434V69.5618H58.7686V52.5685Z" fill="#797EF4"/>
<path d="M69.6569 45.5396H61.3317V69.5617H69.6569V45.5396Z" fill="#797EF4"/>
<path d="M35.3337 64.9028C29.1319 61.6846 24.8721 55.0192 24.8721 47.3305C24.8721 36.491 33.3268 27.6981 43.7496 27.6981C52.4632 27.6981 59.8044 33.8383 61.9666 42.1868H67.6247C67.4434 41.2577 67.2104 40.3421 66.9255 39.4533L70.758 35.5888L68.285 31.1318L63.5592 32.5456C62.5234 31.051 61.3452 29.6775 60.0375 28.4522L61.5005 23.1065L57.2149 20.5346L53.7968 24.2241C52.2043 23.47 50.5211 22.891 48.7732 22.514L47.4784 17.1279H42.5325L41.3543 22.0966C39.5675 22.2851 37.8326 22.6621 36.1882 23.2277L32.4723 19.2419L28.1867 21.8138L29.5462 26.7286C28.109 27.8059 26.7884 29.0312 25.6101 30.3912L20.47 28.8696L17.997 33.3266L21.5446 36.8815C20.8196 38.5377 20.2628 40.2882 19.9003 42.106L14.7213 43.4525V48.5963L19.4989 49.8216C19.6802 51.6798 20.0427 53.4842 20.5865 55.1943L16.7541 59.0588L19.227 63.5158L23.9529 62.102C24.9887 63.5966 26.1669 64.9701 27.4746 66.1954L26.0115 71.5412L30.2971 74.113L33.7153 70.4235C34.2461 70.6794 34.7899 70.8948 35.3337 71.1103V64.9028Z" fill="#6164C3"/>
</svg>
