<svg width="138" height="131" viewBox="0 0 138 131" fill="none" xmlns="http://www.w3.org/2000/svg">
<path d="M25.1884 0.828735H105.018C109.318 0.828735 112.802 5.04762 112.802 10.2549V130.242H17.4041V10.2549C17.4041 5.04762 20.8881 0.828735 25.1884 0.828735Z" fill="#797EF4"/>
<path d="M107.053 21.9969H22.7891V130.257H107.053V21.9969Z" fill="#C5C7F7"/>
<path d="M33.0579 49.346C36.2133 49.346 38.7713 46.2485 38.7713 42.4276C38.7713 38.6067 36.2133 35.5092 33.0579 35.5092C29.9025 35.5092 27.3445 38.6067 27.3445 42.4276C27.3445 46.2485 29.9025 49.346 33.0579 49.346Z" fill="#6164C3"/>
<path d="M101.29 33.0015H50.9174C49.565 33.0015 48.4688 34.329 48.4688 35.9665V49.995C48.4688 51.6326 49.565 52.9601 50.9174 52.9601H101.29C102.643 52.9601 103.739 51.6326 103.739 49.995V35.9665C103.739 34.329 102.643 33.0015 101.29 33.0015Z" fill="white"/>
<path d="M52.2451 37.7072C48.9924 42.2948 41.9634 39.3888 41.9634 39.3888C45.7276 47.5758 49.8452 45.4811 51.1243 45.3779C52.4034 45.2746 52.2329 37.7072 52.2329 37.7072H52.2451Z" fill="white"/>
<path d="M130.064 58.6541H7.22015C3.64759 58.6541 0.751465 62.161 0.751465 66.487V111.375C0.751465 115.701 3.64759 119.208 7.22015 119.208H130.064C133.637 119.208 136.533 115.701 136.533 111.375V66.487C136.533 62.161 133.637 58.6541 130.064 58.6541Z" fill="white" stroke="#6164C3" stroke-miterlimit="10"/>
<path d="M79.6793 47.0742C80.5198 54.0516 74.3435 63.2417 74.3435 63.2417L79.1311 62.0764" stroke="#3B3E75" stroke-linecap="round" stroke-linejoin="round"/>
<path d="M74.3191 63.2122L73.7222 57.4001" stroke="#3B3E75" stroke-linecap="round" stroke-linejoin="round"/>
<path d="M114.763 73.1694H23.812C16.9629 73.1694 11.4106 79.8894 11.4106 88.1789C11.4106 96.4685 16.9629 103.188 23.812 103.188H114.763C121.612 103.188 127.165 96.4685 127.165 88.1789C127.165 79.8894 121.612 73.1694 114.763 73.1694Z" fill="#797EF4"/>
<path d="M95.7833 39.0495H57.2514C55.5828 39.0495 54.2302 40.6874 54.2302 42.7078V42.7226C54.2302 44.743 55.5828 46.3809 57.2514 46.3809H95.7833C97.4518 46.3809 98.8045 44.743 98.8045 42.7226V42.7078C98.8045 40.6874 97.4518 39.0495 95.7833 39.0495Z" fill="#797EF4"/>
<path d="M21.8751 84.1149H17.8916C17.6225 84.1149 17.4043 84.379 17.4043 84.7049V93.954C17.4043 94.2799 17.6225 94.5441 17.8916 94.5441H21.8751C22.1442 94.5441 22.3624 94.2799 22.3624 93.954V84.7049C22.3624 84.379 22.1442 84.1149 21.8751 84.1149Z" fill="white"/>
<path d="M23.1175 84.5131L24.4453 82.2414L24.7864 78.9519C24.8108 78.6716 25.0057 78.4651 25.2372 78.4798C26.6503 78.5683 26.4798 80.4565 26.4798 80.4565L26.2848 83.038C26.1996 83.628 26.7965 83.7608 26.7965 83.7608L30.7069 83.8346C31.5597 84.0116 31.4744 85.4129 31.4744 85.4129L30.5973 93.7917C30.4877 94.485 29.44 94.4113 29.44 94.4113H24.4453C24.0677 94.4113 23.7266 94.2638 23.4464 94.0867C23.1175 93.8802 22.9104 93.4524 22.9104 93.0099V85.2949C22.9104 85.0147 22.9835 84.7491 23.1175 84.5279V84.5131Z" fill="white"/>
<path d="M36.484 92.4583V84.0583H40.132C40.636 84.0583 41.096 84.1783 41.512 84.4183C41.928 84.6503 42.256 84.9703 42.496 85.3783C42.744 85.7783 42.868 86.2303 42.868 86.7343C42.868 87.2143 42.744 87.6583 42.496 88.0663C42.256 88.4663 41.928 88.7863 41.512 89.0263C41.104 89.2583 40.644 89.3743 40.132 89.3743H38.008V92.4583H36.484ZM41.356 92.4583L39.22 88.6663L40.828 88.3663L43.204 92.4703L41.356 92.4583ZM38.008 88.0183H40.144C40.376 88.0183 40.576 87.9663 40.744 87.8623C40.92 87.7503 41.056 87.5983 41.152 87.4063C41.248 87.2143 41.296 87.0023 41.296 86.7703C41.296 86.5063 41.236 86.2783 41.116 86.0863C40.996 85.8943 40.828 85.7423 40.612 85.6303C40.396 85.5183 40.148 85.4623 39.868 85.4623H38.008V88.0183ZM47.3168 92.5783C46.6528 92.5783 46.0648 92.4383 45.5528 92.1583C45.0488 91.8783 44.6528 91.4983 44.3648 91.0183C44.0848 90.5303 43.9448 89.9743 43.9448 89.3503C43.9448 88.8543 44.0248 88.4023 44.1848 87.9943C44.3448 87.5863 44.5648 87.2343 44.8448 86.9383C45.1328 86.6343 45.4728 86.4023 45.8648 86.2423C46.2648 86.0743 46.7008 85.9903 47.1728 85.9903C47.5888 85.9903 47.9768 86.0703 48.3368 86.2303C48.6968 86.3903 49.0088 86.6103 49.2728 86.8903C49.5368 87.1623 49.7368 87.4903 49.8728 87.8743C50.0168 88.2503 50.0848 88.6623 50.0768 89.1103L50.0648 89.6263H44.9408L44.6648 88.6183H48.8288L48.6368 88.8223V88.5583C48.6128 88.3103 48.5328 88.0943 48.3968 87.9103C48.2608 87.7183 48.0848 87.5703 47.8688 87.4663C47.6608 87.3543 47.4288 87.2983 47.1728 87.2983C46.7808 87.2983 46.4488 87.3743 46.1768 87.5263C45.9128 87.6783 45.7128 87.8983 45.5768 88.1863C45.4408 88.4663 45.3728 88.8183 45.3728 89.2423C45.3728 89.6503 45.4568 90.0063 45.6248 90.3103C45.8008 90.6143 46.0448 90.8503 46.3568 91.0183C46.6768 91.1783 47.0488 91.2583 47.4728 91.2583C47.7688 91.2583 48.0408 91.2103 48.2888 91.1143C48.5368 91.0183 48.8048 90.8463 49.0928 90.5983L49.8248 91.6183C49.6088 91.8183 49.3608 91.9903 49.0808 92.1343C48.8088 92.2703 48.5208 92.3783 48.2168 92.4583C47.9128 92.5383 47.6128 92.5783 47.3168 92.5783ZM54.096 92.5783C53.504 92.5783 52.972 92.4343 52.5 92.1463C52.028 91.8583 51.656 91.4663 51.384 90.9703C51.112 90.4743 50.976 89.9143 50.976 89.2903C50.976 88.6663 51.112 88.1063 51.384 87.6103C51.656 87.1143 52.028 86.7223 52.5 86.4343C52.972 86.1463 53.504 86.0023 54.096 86.0023C54.664 86.0023 55.18 86.1103 55.644 86.3263C56.108 86.5423 56.468 86.8423 56.724 87.2263L55.908 88.2103C55.788 88.0423 55.636 87.8903 55.452 87.7543C55.268 87.6183 55.072 87.5103 54.864 87.4303C54.656 87.3503 54.448 87.3103 54.24 87.3103C53.888 87.3103 53.572 87.3983 53.292 87.5743C53.02 87.7423 52.804 87.9783 52.644 88.2823C52.484 88.5783 52.404 88.9143 52.404 89.2903C52.404 89.6663 52.484 90.0023 52.644 90.2983C52.812 90.5943 53.036 90.8303 53.316 91.0063C53.596 91.1823 53.908 91.2703 54.252 91.2703C54.46 91.2703 54.66 91.2383 54.852 91.1743C55.052 91.1023 55.24 91.0023 55.416 90.8743C55.592 90.7463 55.756 90.5863 55.908 90.3943L56.724 91.3903C56.452 91.7423 56.076 92.0303 55.596 92.2543C55.124 92.4703 54.624 92.5783 54.096 92.5783ZM60.7448 92.5783C60.1128 92.5783 59.5488 92.4383 59.0528 92.1583C58.5568 91.8703 58.1648 91.4783 57.8768 90.9823C57.5888 90.4863 57.4448 89.9223 57.4448 89.2903C57.4448 88.6583 57.5888 88.0943 57.8768 87.5983C58.1648 87.1023 58.5568 86.7143 59.0528 86.4343C59.5488 86.1463 60.1128 86.0023 60.7448 86.0023C61.3688 86.0023 61.9288 86.1463 62.4248 86.4343C62.9208 86.7143 63.3088 87.1023 63.5888 87.5983C63.8768 88.0943 64.0208 88.6583 64.0208 89.2903C64.0208 89.9223 63.8768 90.4863 63.5888 90.9823C63.3088 91.4783 62.9208 91.8703 62.4248 92.1583C61.9288 92.4383 61.3688 92.5783 60.7448 92.5783ZM60.7448 91.2703C61.0888 91.2703 61.3928 91.1823 61.6568 91.0063C61.9288 90.8303 62.1408 90.5943 62.2928 90.2983C62.4528 90.0023 62.5288 89.6663 62.5208 89.2903C62.5288 88.9063 62.4528 88.5663 62.2928 88.2703C62.1408 87.9743 61.9288 87.7423 61.6568 87.5743C61.3928 87.3983 61.0888 87.3103 60.7448 87.3103C60.4008 87.3103 60.0888 87.3983 59.8088 87.5743C59.5368 87.7423 59.3248 87.9783 59.1728 88.2823C59.0208 88.5783 58.9448 88.9143 58.9448 89.2903C58.9448 89.6663 59.0208 90.0023 59.1728 90.2983C59.3248 90.5943 59.5368 90.8303 59.8088 91.0063C60.0888 91.1823 60.4008 91.2703 60.7448 91.2703ZM65.3171 92.4583V86.1343H66.7691L66.7931 87.4063L66.5531 87.5023C66.6251 87.2943 66.7331 87.1023 66.8771 86.9263C67.0211 86.7423 67.1931 86.5863 67.3931 86.4583C67.5931 86.3223 67.8051 86.2183 68.0291 86.1463C68.2531 86.0663 68.4811 86.0263 68.7131 86.0263C69.0571 86.0263 69.3611 86.0823 69.6251 86.1943C69.8971 86.2983 70.1211 86.4663 70.2971 86.6983C70.4811 86.9303 70.6171 87.2263 70.7051 87.5863L70.4771 87.5383L70.5731 87.3463C70.6611 87.1543 70.7851 86.9823 70.9451 86.8303C71.1051 86.6703 71.2851 86.5303 71.4851 86.4103C71.6851 86.2823 71.8931 86.1863 72.1091 86.1223C72.3331 86.0583 72.5531 86.0263 72.7691 86.0263C73.2491 86.0263 73.6491 86.1223 73.9691 86.3143C74.2891 86.5063 74.5291 86.7983 74.6891 87.1903C74.8491 87.5823 74.9291 88.0663 74.9291 88.6423V92.4583H73.4411V88.7383C73.4411 88.4183 73.3971 88.1543 73.3091 87.9463C73.2291 87.7383 73.1011 87.5863 72.9251 87.4903C72.7571 87.3863 72.5451 87.3343 72.2891 87.3343C72.0891 87.3343 71.8971 87.3703 71.7131 87.4423C71.5371 87.5063 71.3851 87.6023 71.2571 87.7303C71.1291 87.8503 71.0291 87.9903 70.9571 88.1503C70.8851 88.3103 70.8491 88.4863 70.8491 88.6783V92.4583H69.3611V88.7263C69.3611 88.4223 69.3171 88.1703 69.2291 87.9703C69.1411 87.7623 69.0131 87.6063 68.8451 87.5023C68.6771 87.3903 68.4731 87.3343 68.2331 87.3343C68.0331 87.3343 67.8451 87.3703 67.6691 87.4423C67.4931 87.5063 67.3411 87.5983 67.2131 87.7183C67.0851 87.8383 66.9851 87.9783 66.9131 88.1383C66.8411 88.2983 66.8051 88.4743 66.8051 88.6663V92.4583H65.3171ZM76.5436 92.4583V86.1343H77.9956L78.0196 87.4063L77.7796 87.5023C77.8516 87.2943 77.9596 87.1023 78.1036 86.9263C78.2476 86.7423 78.4196 86.5863 78.6196 86.4583C78.8196 86.3223 79.0316 86.2183 79.2556 86.1463C79.4796 86.0663 79.7076 86.0263 79.9396 86.0263C80.2836 86.0263 80.5876 86.0823 80.8516 86.1943C81.1236 86.2983 81.3476 86.4663 81.5236 86.6983C81.7076 86.9303 81.8436 87.2263 81.9316 87.5863L81.7036 87.5383L81.7996 87.3463C81.8876 87.1543 82.0116 86.9823 82.1716 86.8303C82.3316 86.6703 82.5116 86.5303 82.7116 86.4103C82.9116 86.2823 83.1196 86.1863 83.3356 86.1223C83.5596 86.0583 83.7796 86.0263 83.9956 86.0263C84.4756 86.0263 84.8756 86.1223 85.1956 86.3143C85.5156 86.5063 85.7556 86.7983 85.9156 87.1903C86.0756 87.5823 86.1556 88.0663 86.1556 88.6423V92.4583H84.6676V88.7383C84.6676 88.4183 84.6236 88.1543 84.5356 87.9463C84.4556 87.7383 84.3276 87.5863 84.1516 87.4903C83.9836 87.3863 83.7716 87.3343 83.5156 87.3343C83.3156 87.3343 83.1236 87.3703 82.9396 87.4423C82.7636 87.5063 82.6116 87.6023 82.4836 87.7303C82.3556 87.8503 82.2556 87.9903 82.1836 88.1503C82.1116 88.3103 82.0756 88.4863 82.0756 88.6783V92.4583H80.5876V88.7263C80.5876 88.4223 80.5436 88.1703 80.4556 87.9703C80.3676 87.7623 80.2396 87.6063 80.0716 87.5023C79.9036 87.3903 79.6996 87.3343 79.4596 87.3343C79.2596 87.3343 79.0716 87.3703 78.8956 87.4423C78.7196 87.5063 78.5676 87.5983 78.4396 87.7183C78.3116 87.8383 78.2116 87.9783 78.1396 88.1383C78.0676 88.2983 78.0316 88.4743 78.0316 88.6663V92.4583H76.5436ZM90.7582 92.5783C90.0942 92.5783 89.5062 92.4383 88.9942 92.1583C88.4902 91.8783 88.0942 91.4983 87.8062 91.0183C87.5262 90.5303 87.3862 89.9743 87.3862 89.3503C87.3862 88.8543 87.4662 88.4023 87.6262 87.9943C87.7862 87.5863 88.0062 87.2343 88.2862 86.9383C88.5742 86.6343 88.9142 86.4023 89.3062 86.2423C89.7062 86.0743 90.1422 85.9903 90.6142 85.9903C91.0302 85.9903 91.4182 86.0703 91.7782 86.2303C92.1382 86.3903 92.4502 86.6103 92.7142 86.8903C92.9782 87.1623 93.1782 87.4903 93.3142 87.8743C93.4582 88.2503 93.5262 88.6623 93.5182 89.1103L93.5062 89.6263H88.3822L88.1062 88.6183H92.2702L92.0782 88.8223V88.5583C92.0542 88.3103 91.9742 88.0943 91.8382 87.9103C91.7022 87.7183 91.5262 87.5703 91.3102 87.4663C91.1022 87.3543 90.8702 87.2983 90.6142 87.2983C90.2222 87.2983 89.8902 87.3743 89.6182 87.5263C89.3542 87.6783 89.1542 87.8983 89.0182 88.1863C88.8822 88.4663 88.8142 88.8183 88.8142 89.2423C88.8142 89.6503 88.8982 90.0063 89.0662 90.3103C89.2422 90.6143 89.4862 90.8503 89.7982 91.0183C90.1182 91.1783 90.4902 91.2583 90.9142 91.2583C91.2102 91.2583 91.4822 91.2103 91.7302 91.1143C91.9782 91.0183 92.2462 90.8463 92.5342 90.5983L93.2662 91.6183C93.0502 91.8183 92.8022 91.9903 92.5222 92.1343C92.2502 92.2703 91.9622 92.3783 91.6582 92.4583C91.3542 92.5383 91.0542 92.5783 90.7582 92.5783ZM94.8254 92.4583V86.1343H96.2654L96.2894 87.4303L96.0134 87.5743C96.0934 87.2863 96.2494 87.0263 96.4814 86.7943C96.7134 86.5543 96.9894 86.3623 97.3094 86.2183C97.6294 86.0743 97.9574 86.0023 98.2934 86.0023C98.7734 86.0023 99.1734 86.0983 99.4934 86.2903C99.8214 86.4823 100.065 86.7703 100.225 87.1543C100.393 87.5383 100.477 88.0183 100.477 88.5943V92.4583H99.0014V88.7023C99.0014 88.3823 98.9574 88.1183 98.8694 87.9103C98.7814 87.6943 98.6454 87.5383 98.4614 87.4423C98.2774 87.3383 98.0534 87.2903 97.7894 87.2983C97.5734 87.2983 97.3734 87.3343 97.1894 87.4063C97.0134 87.4703 96.8574 87.5663 96.7214 87.6943C96.5934 87.8143 96.4894 87.9543 96.4094 88.1143C96.3374 88.2743 96.3014 88.4503 96.3014 88.6423V92.4583H95.5694C95.4254 92.4583 95.2894 92.4583 95.1614 92.4583C95.0414 92.4583 94.9294 92.4583 94.8254 92.4583ZM104.682 92.5783C104.122 92.5783 103.618 92.4383 103.17 92.1583C102.73 91.8703 102.378 91.4823 102.114 90.9943C101.858 90.4983 101.73 89.9303 101.73 89.2903C101.73 88.6583 101.858 88.0943 102.114 87.5983C102.37 87.1023 102.718 86.7143 103.158 86.4343C103.606 86.1463 104.11 86.0023 104.67 86.0023C104.974 86.0023 105.266 86.0503 105.546 86.1463C105.834 86.2423 106.09 86.3743 106.314 86.5423C106.538 86.7023 106.714 86.8823 106.842 87.0823C106.978 87.2823 107.054 87.4903 107.07 87.7063L106.674 87.7543V83.5783H108.15V92.4583H106.722L106.686 90.9703L106.974 90.9943C106.966 91.1943 106.894 91.3863 106.758 91.5703C106.63 91.7543 106.462 91.9223 106.254 92.0743C106.046 92.2263 105.802 92.3503 105.522 92.4463C105.25 92.5343 104.97 92.5783 104.682 92.5783ZM104.97 91.3303C105.314 91.3303 105.618 91.2423 105.882 91.0663C106.146 90.8903 106.35 90.6503 106.494 90.3463C106.646 90.0423 106.722 89.6903 106.722 89.2903C106.722 88.8983 106.646 88.5503 106.494 88.2463C106.35 87.9343 106.146 87.6943 105.882 87.5263C105.618 87.3503 105.314 87.2623 104.97 87.2623C104.626 87.2623 104.322 87.3503 104.058 87.5263C103.794 87.6943 103.586 87.9343 103.434 88.2463C103.29 88.5503 103.218 88.8983 103.218 89.2903C103.218 89.6903 103.29 90.0423 103.434 90.3463C103.586 90.6503 103.794 90.8903 104.058 91.0663C104.322 91.2423 104.626 91.3303 104.97 91.3303ZM112.789 92.5783C112.125 92.5783 111.537 92.4383 111.025 92.1583C110.521 91.8783 110.125 91.4983 109.837 91.0183C109.557 90.5303 109.417 89.9743 109.417 89.3503C109.417 88.8543 109.497 88.4023 109.657 87.9943C109.817 87.5863 110.037 87.2343 110.317 86.9383C110.605 86.6343 110.945 86.4023 111.337 86.2423C111.737 86.0743 112.173 85.9903 112.645 85.9903C113.061 85.9903 113.449 86.0703 113.809 86.2303C114.169 86.3903 114.481 86.6103 114.745 86.8903C115.009 87.1623 115.209 87.4903 115.345 87.8743C115.489 88.2503 115.557 88.6623 115.549 89.1103L115.537 89.6263H110.413L110.137 88.6183H114.301L114.109 88.8223V88.5583C114.085 88.3103 114.005 88.0943 113.869 87.9103C113.733 87.7183 113.557 87.5703 113.341 87.4663C113.133 87.3543 112.901 87.2983 112.645 87.2983C112.253 87.2983 111.921 87.3743 111.649 87.5263C111.385 87.6783 111.185 87.8983 111.049 88.1863C110.913 88.4663 110.845 88.8183 110.845 89.2423C110.845 89.6503 110.929 90.0063 111.097 90.3103C111.273 90.6143 111.517 90.8503 111.829 91.0183C112.149 91.1783 112.521 91.2583 112.945 91.2583C113.241 91.2583 113.513 91.2103 113.761 91.1143C114.009 91.0183 114.277 90.8463 114.565 90.5983L115.297 91.6183C115.081 91.8183 114.833 91.9903 114.553 92.1343C114.281 92.2703 113.993 92.3783 113.689 92.4583C113.385 92.5383 113.085 92.5783 112.789 92.5783ZM119.401 92.5783C118.841 92.5783 118.337 92.4383 117.889 92.1583C117.449 91.8703 117.097 91.4823 116.833 90.9943C116.577 90.4983 116.449 89.9303 116.449 89.2903C116.449 88.6583 116.577 88.0943 116.833 87.5983C117.089 87.1023 117.437 86.7143 117.877 86.4343C118.325 86.1463 118.829 86.0023 119.389 86.0023C119.693 86.0023 119.985 86.0503 120.265 86.1463C120.553 86.2423 120.809 86.3743 121.033 86.5423C121.257 86.7023 121.433 86.8823 121.561 87.0823C121.697 87.2823 121.773 87.4903 121.789 87.7063L121.393 87.7543V83.5783H122.869V92.4583H121.441L121.405 90.9703L121.693 90.9943C121.685 91.1943 121.613 91.3863 121.477 91.5703C121.349 91.7543 121.181 91.9223 120.973 92.0743C120.765 92.2263 120.521 92.3503 120.241 92.4463C119.969 92.5343 119.689 92.5783 119.401 92.5783ZM119.689 91.3303C120.033 91.3303 120.337 91.2423 120.601 91.0663C120.865 90.8903 121.069 90.6503 121.213 90.3463C121.365 90.0423 121.441 89.6903 121.441 89.2903C121.441 88.8983 121.365 88.5503 121.213 88.2463C121.069 87.9343 120.865 87.6943 120.601 87.5263C120.337 87.3503 120.033 87.2623 119.689 87.2623C119.345 87.2623 119.041 87.3503 118.777 87.5263C118.513 87.6943 118.305 87.9343 118.153 88.2463C118.009 88.5503 117.937 88.8983 117.937 89.2903C117.937 89.6903 118.009 90.0423 118.153 90.3463C118.305 90.6503 118.513 90.8903 118.777 91.0663C119.041 91.2423 119.345 91.3303 119.689 91.3303Z" fill="white"/>
</svg>
