<svg width="20" height="20" viewBox="0 0 20 20" fill="none" xmlns="http://www.w3.org/2000/svg">
<path d="M10.0006 15.1374C7.16679 15.1374 4.86157 12.8323 4.86157 9.99999C4.86157 7.16764 7.16679 4.86127 10.0006 4.86127C12.8345 4.86127 15.1384 7.16633 15.1384 9.99999C15.1384 12.8337 12.8332 15.1374 10.0006 15.1374ZM10.0006 6.57198C8.11096 6.57198 6.5724 8.10913 6.5724 9.99999C6.5724 11.8909 8.10965 13.428 10.0006 13.428C11.8916 13.428 13.4289 11.8909 13.4289 9.99999C13.4289 8.10913 11.8916 6.57198 10.0006 6.57198Z" fill="white"/>
<path d="M14.7794 20H5.22059C2.34203 20 0 17.6581 0 14.7798V5.22025C0 2.34188 2.34203 0 5.22059 0H14.7794C17.658 0 20 2.34188 20 5.22025V14.7784C20 17.6568 17.658 19.9987 14.7794 19.9987V20ZM5.22059 1.71072C3.2849 1.71072 1.70951 3.286 1.70951 5.22157V14.7798C1.70951 16.7153 3.2849 18.2906 5.22059 18.2906H14.7794C16.7151 18.2906 18.2905 16.7153 18.2905 14.7798V5.22025C18.2905 3.28468 16.7151 1.7094 14.7794 1.7094H5.22059V1.71072Z" fill="white"/>
<path d="M15.2817 5.81064C15.9339 5.81064 16.4626 5.28198 16.4626 4.62984C16.4626 3.9777 15.9339 3.44904 15.2817 3.44904C14.6295 3.44904 14.1008 3.9777 14.1008 4.62984C14.1008 5.28198 14.6295 5.81064 15.2817 5.81064Z" fill="white"/>
</svg>
