<svg width="18" height="19" viewBox="0 0 18 19" fill="none" xmlns="http://www.w3.org/2000/svg">
<path d="M0.908813 6.90762H4.38727V19H0.908813V6.90762Z" fill="white"/>
<path d="M6.68751 10.6586C6.68751 9.38497 6.68751 7.84358 6.66003 6.72793H10.032C10.1064 7.12836 10.1545 8.03052 10.166 8.49849C10.6709 7.46124 11.7586 6.36972 14.3108 6.36972C17.0943 6.36972 18 8.48763 18 12.2941V18.9988H14.5215V12.7138C14.5215 10.8697 13.8196 9.5671 12.6895 9.5671C10.7293 9.5671 10.1648 10.8854 10.1648 13.622V18.9988H6.68637V10.6586H6.68751Z" fill="white"/>
<path d="M3.42346 4.76155C4.45753 4.31036 4.94859 3.06157 4.52026 1.9723C4.09193 0.883034 2.90643 0.365768 1.87235 0.816959C0.838281 1.26815 0.347227 2.51694 0.775554 3.60621C1.20388 4.69548 2.38939 5.21274 3.42346 4.76155Z" fill="white"/>
</svg>
