<svg width="21" height="16" viewBox="0 0 21 16" fill="none" xmlns="http://www.w3.org/2000/svg">
<path d="M20.9436 2.1124C20.5065 2.69204 20.0257 3.21249 19.4695 3.693C18.8725 4.20793 18.9785 4.55765 18.919 5.2612C18.8304 6.31861 18.6009 7.34021 18.2364 8.34254C17.5203 10.3128 16.2262 12.0627 14.5589 13.4106C10.559 16.6434 4.38771 16.7811 0 14.2037C3.2316 14.3345 4.68109 13.7039 6.36298 12.5253C4.67238 12.294 3.15607 11.8658 2.32675 9.66843C3.13864 9.87908 3.71815 9.7772 4.21487 9.64502C2.65499 9.17552 0.824965 8.45957 0.824965 5.6178C1.48581 5.99368 2.37904 6.15614 2.76683 6.10382C0.666653 4.72011 0.495269 2.40704 1.45095 0.683254C2.80168 2.59429 7.79359 5.27497 10.0652 4.80272C9.81243 2.86966 10.9104 0.911808 12.9322 0.257815C14.0723 -0.109798 15.2038 -0.0836383 16.3265 0.332163C16.7636 0.496006 17.2052 0.765864 17.5407 1.07978C17.5988 1.13348 17.638 1.1734 17.715 1.18855C17.7643 1.19819 17.8152 1.19406 17.8631 1.18167C18.6488 0.971011 19.879 0.458832 20.2233 0.274337C20.3583 0.201365 19.5276 2.07385 18.3918 2.52958C18.9016 2.42081 20.1042 2.07523 20.5965 1.87834C20.6938 1.83979 20.8057 1.81501 20.8841 1.84254C20.9974 1.87559 21.0468 1.97885 20.9436 2.11102V2.1124Z" fill="white"/>
</svg>
